<svg width="18" height="19" viewBox="0 0 18 19" fill="none" xmlns="http://www.w3.org/2000/svg">
<path d="M2.13441 5.61564H13.712V3.9617H2.13441V5.61564ZM2.13441 17.1932C1.67958 17.1932 1.29021 17.0313 0.966315 16.7074C0.642417 16.3835 0.480469 15.9941 0.480469 15.5393V3.9617C0.480469 3.50686 0.642417 3.1175 0.966315 2.7936C1.29021 2.4697 1.67958 2.30775 2.13441 2.30775H2.96138V0.653809H4.61533V2.30775H11.2311V0.653809H12.885V2.30775H13.712C14.1669 2.30775 14.5562 2.4697 14.8801 2.7936C15.204 3.1175 15.366 3.50686 15.366 3.9617V8.65476C15.1041 8.53072 14.8353 8.42735 14.5597 8.34465C14.284 8.26195 14.0015 8.19993 13.712 8.15858V7.26958H2.13441V15.5393H7.34434C7.44082 15.8425 7.55453 16.132 7.68546 16.4076C7.8164 16.6833 7.97146 16.9452 8.15063 17.1932H2.13441ZM12.885 18.0202C11.7411 18.0202 10.7659 17.6171 9.95964 16.8108C9.15334 16.0045 8.75019 15.0293 8.75019 13.8854C8.75019 12.7414 9.15334 11.7662 9.95964 10.9599C10.7659 10.1536 11.7411 9.7505 12.885 9.7505C14.029 9.7505 15.0042 10.1536 15.8105 10.9599C16.6168 11.7662 17.0199 12.7414 17.0199 13.8854C17.0199 15.0293 16.6168 16.0045 15.8105 16.8108C15.0042 17.6171 14.029 18.0202 12.885 18.0202ZM14.2702 15.8494L14.8491 15.2705L13.2985 13.72V11.4044H12.4716V14.0508L14.2702 15.8494Z" fill="#667085"/>
</svg>
