<svg width="45" height="32" viewBox="0 0 45 32" fill="none" xmlns="http://www.w3.org/2000/svg">
<path d="M11.5 32C8.46667 32 5.875 30.95 3.725 28.85C1.575 26.75 0.5 24.1833 0.5 21.15C0.5 18.55 1.28333 16.2333 2.85 14.2C4.41667 12.1667 6.46667 10.8667 9 10.3C9.83333 7.23333 11.5 4.75 14 2.85C16.5 0.95 19.3333 0 22.5 0C26.4 0 29.7083 1.35833 32.425 4.075C35.1417 6.79167 36.5 10.1 36.5 14C38.8 14.2667 40.7083 15.2583 42.225 16.975C43.7417 18.6917 44.5 20.7 44.5 23C44.5 25.5 43.625 27.625 41.875 29.375C40.125 31.125 38 32 35.5 32H24.5C23.4 32 22.4583 31.6083 21.675 30.825C20.8917 30.0417 20.5 29.1 20.5 28V17.7L17.3 20.8L14.5 18L22.5 10L30.5 18L27.7 20.8L24.5 17.7V28H35.5C36.9 28 38.0833 27.5167 39.05 26.55C40.0167 25.5833 40.5 24.4 40.5 23C40.5 21.6 40.0167 20.4167 39.05 19.45C38.0833 18.4833 36.9 18 35.5 18H32.5V14C32.5 11.2333 31.525 8.875 29.575 6.925C27.625 4.975 25.2667 4 22.5 4C19.7333 4 17.375 4.975 15.425 6.925C13.475 8.875 12.5 11.2333 12.5 14H11.5C9.56667 14 7.91667 14.6833 6.55 16.05C5.18333 17.4167 4.5 19.0667 4.5 21C4.5 22.9333 5.18333 24.5833 6.55 25.95C7.91667 27.3167 9.56667 28 11.5 28H16.5V32H11.5Z" fill="#1BB234"/>
</svg>
