<svg width="12" height="17" viewBox="0 0 12 17" fill="none" xmlns="http://www.w3.org/2000/svg">
<path d="M5 17V15H3V13H5V10.9C3.68333 10.6667 2.60417 10.0375 1.7625 9.0125C0.920833 7.9875 0.5 6.8 0.5 5.45C0.5 3.93333 1.0375 2.64583 2.1125 1.5875C3.1875 0.529167 4.48333 0 6 0C7.51667 0 8.8125 0.529167 9.8875 1.5875C10.9625 2.64583 11.5 3.93333 11.5 5.45C11.5 6.8 11.0792 7.9875 10.2375 9.0125C9.39583 10.0375 8.31667 10.6667 7 10.9V13H9V15H7V17H5ZM6 9C6.96667 9 7.79167 8.65833 8.475 7.975C9.15833 7.29167 9.5 6.46667 9.5 5.5C9.5 4.53333 9.15833 3.70833 8.475 3.025C7.79167 2.34167 6.96667 2 6 2C5.03333 2 4.20833 2.34167 3.525 3.025C2.84167 3.70833 2.5 4.53333 2.5 5.5C2.5 6.46667 2.84167 7.29167 3.525 7.975C4.20833 8.65833 5.03333 9 6 9Z" fill="#101828"/>
</svg>
