<svg width="19" height="20" viewBox="0 0 19 20" fill="none" xmlns="http://www.w3.org/2000/svg">
<path d="M17.8332 14.1883V16.6883C17.8341 16.9204 17.7866 17.1501 17.6936 17.3628C17.6006 17.5754 17.4643 17.7663 17.2933 17.9232C17.1222 18.0801 16.9203 18.1995 16.7005 18.2739C16.4806 18.3482 16.2477 18.3759 16.0165 18.355C13.4522 18.0763 10.989 17.2001 8.82486 15.7966C6.81139 14.5172 5.10431 12.8101 3.82486 10.7966C2.41651 8.62263 1.54007 6.14746 1.26653 3.57163C1.2457 3.34119 1.27309 3.10893 1.34695 2.88965C1.4208 2.67037 1.53951 2.46887 1.6955 2.29798C1.8515 2.12709 2.04137 1.99055 2.25302 1.89707C2.46468 1.80358 2.69348 1.75518 2.92486 1.75496H5.42486C5.82928 1.75098 6.22136 1.8942 6.528 2.15791C6.83464 2.42162 7.03493 2.78784 7.09153 3.1883C7.19705 3.98835 7.39274 4.7739 7.67486 5.52996C7.78698 5.82823 7.81125 6.15239 7.74478 6.46403C7.67832 6.77567 7.52392 7.06172 7.29986 7.2883L6.24153 8.34663C7.42783 10.4329 9.15524 12.1603 11.2415 13.3466L12.2999 12.2883C12.5264 12.0642 12.8125 11.9098 13.1241 11.8434C13.4358 11.7769 13.7599 11.8012 14.0582 11.9133C14.8143 12.1954 15.5998 12.3911 16.3999 12.4966C16.8047 12.5537 17.1744 12.7576 17.4386 13.0695C17.7029 13.3814 17.8433 13.7796 17.8332 14.1883Z" stroke="#667085" stroke-width="1.66667" stroke-linecap="round" stroke-linejoin="round"/>
</svg>
