<svg width="22" height="17" viewBox="0 0 22 17" fill="none" xmlns="http://www.w3.org/2000/svg">
<path d="M18.5905 11.4486C20.2187 9.80542 21.2122 8.2522 21.2122 8.2522C21.2122 8.2522 16.735 1.2522 11.2122 1.2522C10.3865 1.2522 9.58418 1.40865 8.81672 1.67478M4.27282 1.2522L18.7685 15.7479M1.21216 8.2522C1.21216 8.2522 3.15004 5.22234 6.04863 3.14933L16.3048 13.4055C14.8132 14.4584 13.0719 15.2522 11.2122 15.2522C5.68931 15.2522 1.21216 8.2522 1.21216 8.2522ZM11.2122 12.2521C9.00302 12.2521 7.21216 10.4613 7.21216 8.25215C7.21216 7.2377 7.58979 6.31146 8.21216 5.60632L14.0725 11.0483C13.3463 11.7911 12.3331 12.2521 11.2122 12.2521Z" stroke="#101828" stroke-linecap="round"/>
</svg>
