<svg width="19" height="24" viewBox="0 0 19 24" fill="none" xmlns="http://www.w3.org/2000/svg">
<path d="M14.801 0H0V24H18.8005V3.9995L14.801 0Z" fill="#E8E8E8"/>
<path d="M15.6081 11.8686C15.3197 11.3547 14.3233 11.1932 13.8661 11.1205C13.5058 11.0632 13.138 11.0461 12.7735 11.0464C12.4874 11.0445 12.2054 11.0586 11.9271 11.0744C11.8245 11.0813 11.7229 11.0902 11.6214 11.099C11.5174 10.9913 11.4169 10.8801 11.3196 10.7663C10.7006 10.0336 10.2008 9.20256 9.7935 8.33902C9.90163 7.92178 9.98815 7.48632 10.0404 7.03409C10.1358 6.2087 10.1686 5.26806 9.85928 4.48114C9.7525 4.20954 9.46776 3.8789 9.13925 4.04355C8.76159 4.2329 8.65535 4.76936 8.62456 5.14963C8.59979 5.45701 8.61712 5.76517 8.66873 6.0674C8.72129 6.37169 8.80591 6.66062 8.89806 6.94915C8.98402 7.2137 9.07878 7.47619 9.18208 7.73623C9.11653 7.94093 9.04695 8.14207 8.97389 8.33807C8.80354 8.78476 8.61934 9.20913 8.44218 9.61736C8.34877 9.81977 8.25734 10.0179 8.1679 10.2116C7.88482 10.8334 7.57753 11.4438 7.23263 12.0338C6.42814 12.3176 5.70621 12.6466 5.10667 13.0332C4.78504 13.241 4.50094 13.4667 4.26434 13.7142C4.04095 13.9479 3.81392 14.2512 3.79405 14.5869C3.78289 14.7764 3.85794 14.9603 4.01317 15.0727C4.22666 15.2322 4.50957 15.2216 4.75726 15.1696C5.56864 14.9994 6.1917 14.302 6.7223 13.7141C7.08777 13.3092 7.50375 12.7951 7.93889 12.1733C7.93984 12.1719 7.94079 12.1705 7.94182 12.169C8.68813 11.9377 9.50037 11.7423 10.3624 11.5987C10.7562 11.5334 11.1605 11.48 11.5728 11.4424C11.8628 11.714 12.1761 11.9613 12.5179 12.1679C12.7841 12.3316 13.0673 12.4699 13.3636 12.5731C13.6633 12.671 13.9649 12.7509 14.2762 12.8015C14.4334 12.824 14.5942 12.8342 14.7584 12.828C15.125 12.8142 15.6512 12.6736 15.6857 12.2288C15.6963 12.0927 15.6669 11.9733 15.6081 11.8686ZM6.83185 12.6848C6.66016 12.9507 6.49456 13.19 6.33854 13.4004C5.95644 13.9203 5.52003 14.5379 4.88819 14.7688C4.76818 14.8126 4.61018 14.8579 4.44363 14.8481C4.29529 14.8394 4.149 14.7739 4.15573 14.6055C4.15906 14.5173 4.2022 14.4048 4.26837 14.2943C4.3408 14.1731 4.43049 14.062 4.52762 13.9598C4.73573 13.7411 4.99885 13.5292 5.30155 13.333C5.76582 13.0318 6.32009 12.7607 6.93793 12.5188C6.90238 12.575 6.86692 12.6309 6.83185 12.6848ZM8.98671 6.01484C8.93906 5.73668 8.93186 5.45463 8.96114 5.18344C8.97571 5.04784 9.00334 4.91548 9.04331 4.79144C9.07719 4.68616 9.15033 4.42921 9.26701 4.3962C9.45937 4.34174 9.5185 4.75471 9.54027 4.87155C9.66423 5.53617 9.55499 6.27527 9.40626 6.92722C9.38259 7.03092 9.35623 7.13296 9.32923 7.2346C9.28316 7.10786 9.23923 6.98074 9.19878 6.85297C9.11171 6.57394 9.03207 6.29166 8.98671 6.01484ZM10.3073 11.2615C9.5846 11.3786 8.89711 11.5321 8.25085 11.7133C8.32867 11.6916 8.68425 11.0177 8.76357 10.8778C9.13727 10.2196 9.44298 9.52878 9.66265 8.80408C10.0505 9.57121 10.5213 10.3051 11.0996 10.9583C11.1529 11.0176 11.207 11.0762 11.2621 11.134C10.9381 11.1689 10.6191 11.2115 10.3073 11.2615ZM15.1949 12.1872C15.1685 12.33 14.8633 12.4117 14.7209 12.4342C14.3001 12.5004 13.8549 12.4474 13.4521 12.3122C13.1758 12.2194 12.9093 12.093 12.656 11.9411C12.4043 11.789 12.1688 11.6101 11.9487 11.4128C12.2201 11.3965 12.4949 11.3858 12.771 11.3911C13.0471 11.3938 13.3253 11.4078 13.6002 11.4436C14.1156 11.5011 14.6931 11.678 15.0988 12.0125C15.1787 12.0784 15.2042 12.1367 15.1949 12.1872Z" fill="#FB3449"/>
<path d="M15.42 1.99979H0V0H14.801L15.42 1.99979Z" fill="#FB3449"/>
<path d="M7.44178 19.0893C7.44178 19.5137 7.31671 19.8414 7.06641 20.0725C6.81611 20.3038 6.46068 20.4193 5.99998 20.4193H5.7116V21.6793H4.68555V17.8813H6.00006C6.47976 17.8813 6.84001 17.9862 7.08073 18.1957C7.32146 18.4052 7.44178 18.7031 7.44178 19.0893ZM5.71168 19.5829H5.89873C6.05286 19.5829 6.17539 19.5396 6.26635 19.453C6.3573 19.3664 6.40274 19.2468 6.40274 19.0945C6.40274 18.8381 6.26073 18.71 5.97671 18.71H5.71168V19.5829Z" fill="#A4A9AD"/>
<path d="M11.2708 19.6998C11.2708 20.3336 11.0962 20.822 10.7473 21.1649C10.3984 21.5078 9.90774 21.6793 9.27566 21.6793H8.04688V17.8813H9.36139C9.97099 17.8813 10.4416 18.0372 10.7733 18.3489C11.1049 18.6607 11.2708 19.111 11.2708 19.6998ZM10.2057 19.7362C10.2057 19.3881 10.1368 19.1301 9.99917 18.962C9.86151 18.794 9.65237 18.7101 9.37176 18.7101H9.07309V20.8376H9.3017C9.61351 20.8376 9.84204 20.7471 9.98753 20.5661C10.1329 20.3852 10.2057 20.1086 10.2057 19.7362Z" fill="#A4A9AD"/>
<path d="M12.9617 21.6793H11.9512V17.8813H14.1957V18.7048H12.9617V19.4296H14.0995V20.2531H12.9617V21.6793Z" fill="#A4A9AD"/>
<path d="M14.8008 3.9995H18.8003L14.8008 0V3.9995Z" fill="#D1D3D3"/>
</svg>
